<svg viewBox="0 0 1129 400" xmlns="http://www.w3.org/2000/svg"><g><g><g><g><g><line x1="53.1875" y1="376" x2="48.1875" y2="376" style="visibility: inherit;" fill="rgb(0, 0, 0)" stroke="rgb(204, 204, 204)" stroke-width="1px"></line><line x1="53.1875" y1="338.40000000000003" x2="48.1875" y2="338.40000000000003" style="visibility: inherit;" fill="rgb(0, 0, 0)" stroke="rgb(204, 204, 204)" stroke-width="1px"></line><line x1="53.1875" y1="300.8" x2="48.1875" y2="300.8" style="visibility: inherit;" fill="rgb(0, 0, 0)" stroke="rgb(204, 204, 204)" stroke-width="1px"></line><line x1="53.1875" y1="263.2" x2="48.1875" y2="263.2" style="visibility: inherit;" fill="rgb(0, 0, 0)" stroke="rgb(204, 204, 204)" stroke-width="1px"></line><line x1="53.1875" y1="225.6" x2="48.1875" y2="225.6" style="visibility: inherit;" fill="rgb(0, 0, 0)" stroke="rgb(204, 204, 204)" stroke-width="1px"></line><line x1="53.1875" y1="188" x2="48.1875" y2="188" style="visibility: inherit;" fill="rgb(0, 0, 0)" stroke="rgb(204, 204, 204)" stroke-width="1px"></line><line x1="53.1875" y1="150.4" x2="48.1875" y2="150.4" style="visibility: inherit;" fill="rgb(0, 0, 0)" stroke="rgb(204, 204, 204)" stroke-width="1px"></line><line x1="53.1875" y1="112.80000000000001" x2="48.1875" y2="112.80000000000001" style="visibility: inherit;" fill="rgb(0, 0, 0)" stroke="rgb(204, 204, 204)" stroke-width="1px"></line><line x1="53.1875" y1="75.19999999999999" x2="48.1875" y2="75.19999999999999" style="visibility: inherit;" fill="rgb(0, 0, 0)" stroke="rgb(204, 204, 204)" stroke-width="1px"></line><line x1="53.1875" y1="37.599999999999994" x2="48.1875" y2="37.599999999999994" style="visibility: inherit;" fill="rgb(0, 0, 0)" stroke="rgb(204, 204, 204)" stroke-width="1px"></line><line x1="53.1875" y1="0" x2="48.1875" y2="0" style="visibility: inherit;" fill="rgb(0, 0, 0)" stroke="rgb(204, 204, 204)" stroke-width="1px"></line></g><g transform="translate(43.1875, 0)"><text x="0" y="376" dx="0em" dy="0.3em" style="text-anchor: end; visibility: hidden; font-family: Roboto, sans-serif; font-size: 12px; font-weight: 200;" fill="rgb(33, 33, 33)" stroke="none" stroke-width="1px">-150</text><text x="0" y="338.40000000000003" dx="0em" dy="0.3em" style="text-anchor: end; visibility: inherit; font-family: Roboto, sans-serif; font-size: 12px; font-weight: 200;" fill="rgb(33, 33, 33)" stroke="none" stroke-width="1px">-100</text><text x="0" y="300.8" dx="0em" dy="0.3em" style="text-anchor: end; visibility: inherit; font-family: Roboto, sans-serif; font-size: 12px; font-weight: 200;" fill="rgb(33, 33, 33)" stroke="none" stroke-width="1px">-50</text><text x="0" y="263.2" dx="0em" dy="0.3em" style="text-anchor: end; visibility: inherit; font-family: Roboto, sans-serif; font-size: 12px; font-weight: 200;" fill="rgb(33, 33, 33)" stroke="none" stroke-width="1px">0</text><text x="0" y="225.6" dx="0em" dy="0.3em" style="text-anchor: end; visibility: inherit; font-family: Roboto, sans-serif; font-size: 12px; font-weight: 200;" fill="rgb(33, 33, 33)" stroke="none" stroke-width="1px">50</text><text x="0" y="188" dx="0em" dy="0.3em" style="text-anchor: end; visibility: inherit; font-family: Roboto, sans-serif; font-size: 12px; font-weight: 200;" fill="rgb(33, 33, 33)" stroke="none" stroke-width="1px">100</text><text x="0" y="150.4" dx="0em" dy="0.3em" style="text-anchor: end; visibility: inherit; font-family: Roboto, sans-serif; font-size: 12px; font-weight: 200;" fill="rgb(33, 33, 33)" stroke="none" stroke-width="1px">150</text><text x="0" y="112.80000000000001" dx="0em" dy="0.3em" style="text-anchor: end; visibility: inherit; font-family: Roboto, sans-serif; font-size: 12px; font-weight: 200;" fill="rgb(33, 33, 33)" stroke="none" stroke-width="1px">200</text><text x="0" y="75.19999999999999" dx="0em" dy="0.3em" style="text-anchor: end; visibility: inherit; font-family: Roboto, sans-serif; font-size: 12px; font-weight: 200;" fill="rgb(33, 33, 33)" stroke="none" stroke-width="1px">250</text><text x="0" y="37.599999999999994" dx="0em" dy="0.3em" style="text-anchor: end; visibility: inherit; font-family: Roboto, sans-serif; font-size: 12px; font-weight: 200;" fill="rgb(33, 33, 33)" stroke="none" stroke-width="1px">300</text><text x="0" y="0" dx="0em" dy="0.3em" style="text-anchor: end; visibility: hidden; font-family: Roboto, sans-serif; font-size: 12px; font-weight: 200;" fill="rgb(33, 33, 33)" stroke="none" stroke-width="1px">350</text></g><line x1="53.1875" y1="0" x2="53.1875" y2="376" fill="rgb(0, 0, 0)" stroke="rgb(204, 204, 204)" stroke-width="1px"></line></g></g><g transform="translate(53, 0)" clip-path="url(#clip_0)"><clipPath id="clip_0"><rect width="1075" height="376"></rect></clipPath><g><g><g><line x1="0" y1="0" x2="0" y2="376" fill="rgb(0, 0, 0)" stroke="rgb(66, 66, 66)" stroke-width="1px" opacity="0.25"></line><line x1="134.4765625" y1="0" x2="134.4765625" y2="376" fill="rgb(0, 0, 0)" stroke="rgb(66, 66, 66)" stroke-width="1px" opacity="0.25"></line><line x1="268.953125" y1="0" x2="268.953125" y2="376" fill="rgb(0, 0, 0)" stroke="rgb(66, 66, 66)" stroke-width="1px" opacity="0.25"></line><line x1="403.4296875" y1="0" x2="403.4296875" y2="376" fill="rgb(0, 0, 0)" stroke="rgb(66, 66, 66)" stroke-width="1px" opacity="0.25"></line><line x1="537.90625" y1="0" x2="537.90625" y2="376" fill="rgb(0, 0, 0)" stroke="rgb(66, 66, 66)" stroke-width="1px" opacity="0.25"></line><line x1="672.3828125" y1="0" x2="672.3828125" y2="376" fill="rgb(0, 0, 0)" stroke="rgb(66, 66, 66)" stroke-width="1px" opacity="0.25"></line><line x1="806.859375" y1="0" x2="806.859375" y2="376" fill="rgb(0, 0, 0)" stroke="rgb(66, 66, 66)" stroke-width="1px" opacity="0.25"></line><line x1="941.3359375" y1="0" x2="941.3359375" y2="376" fill="rgb(0, 0, 0)" stroke="rgb(66, 66, 66)" stroke-width="1px" opacity="0.25"></line><line x1="1075.8125" y1="0" x2="1075.8125" y2="376" fill="rgb(0, 0, 0)" stroke="rgb(66, 66, 66)" stroke-width="1px" opacity="0.25"></line></g><g><line x1="0" y1="376" x2="1075.8125" y2="376" fill="rgb(0, 0, 0)" stroke="rgb(66, 66, 66)" stroke-width="1px" opacity="0.25"></line><line x1="0" y1="338.40000000000003" x2="1075.8125" y2="338.40000000000003" fill="rgb(0, 0, 0)" stroke="rgb(66, 66, 66)" stroke-width="1px" opacity="0.25"></line><line x1="0" y1="300.8" x2="1075.8125" y2="300.8" fill="rgb(0, 0, 0)" stroke="rgb(66, 66, 66)" stroke-width="1px" opacity="0.25"></line><line x1="0" y1="263.2" x2="1075.8125" y2="263.2" fill="rgb(0, 0, 0)" stroke="rgb(66, 66, 66)" stroke-width="1px" opacity="0.25"></line><line x1="0" y1="225.6" x2="1075.8125" y2="225.6" fill="rgb(0, 0, 0)" stroke="rgb(66, 66, 66)" stroke-width="1px" opacity="0.25"></line><line x1="0" y1="188" x2="1075.8125" y2="188" fill="rgb(0, 0, 0)" stroke="rgb(66, 66, 66)" stroke-width="1px" opacity="0.25"></line><line x1="0" y1="150.4" x2="1075.8125" y2="150.4" fill="rgb(0, 0, 0)" stroke="rgb(66, 66, 66)" stroke-width="1px" opacity="0.25"></line><line x1="0" y1="112.80000000000001" x2="1075.8125" y2="112.80000000000001" fill="rgb(0, 0, 0)" stroke="rgb(66, 66, 66)" stroke-width="1px" opacity="0.25"></line><line x1="0" y1="75.19999999999999" x2="1075.8125" y2="75.19999999999999" fill="rgb(0, 0, 0)" stroke="rgb(66, 66, 66)" stroke-width="1px" opacity="0.25"></line><line x1="0" y1="37.599999999999994" x2="1075.8125" y2="37.599999999999994" fill="rgb(0, 0, 0)" stroke="rgb(66, 66, 66)" stroke-width="1px" opacity="0.25"></line><line x1="0" y1="0" x2="1075.8125" y2="0" fill="rgb(0, 0, 0)" stroke="rgb(66, 66, 66)" stroke-width="1px" opacity="0.25"></line></g></g></g><g><g><line x1="0" y1="263.2" x2="1075.8125" y2="263.2" fill="rgb(0, 0, 0)" stroke="rgb(153, 153, 153)" stroke-width="1.5px"></line></g></g><g><g><line x1="134.4765625" y1="0" x2="134.4765625" y2="376" fill="rgb(0, 0, 0)" stroke="rgb(153, 153, 153)" stroke-width="1.5px"></line></g></g><g><g><g><g><g><path stroke="rgb(255, 112, 67)" stroke-width="2px" d="M134.4765625,342.711791015625L137.16609375000002,344.1768536343961L139.855625,346.3816707271357L142.54515625000002,347.46200031528645L145.2346875,346.7402186686048L147.92421875000002,341.51611821798616L150.61375,333.98172547071806L153.30328125,336.41051358044353L155.99281249999999,338.41095131483365L158.68234375,334.4245262520076L161.371875,335.7546188723859L164.06140625,329.2271946787201L166.7509375,328.3542934445812L169.44046875,326.1793928854574L172.13,328.17841777611136L174.81953125,327.0768921292604L177.5090625,329.34177898195753L180.19859375000001,330.1849328179593L182.888125,331.66996967491207L185.57765625,330.0596714593376L188.26718749999998,327.1181041346803L190.95671875,328.0185496515941L193.64624999999998,329.2633669827807L196.33578125,326.37393829457176L199.02531249999998,328.7859344860402L201.71484375,331.2451552614726L204.40437500000002,332.3087191212006L207.09390625,333.9681399207454L209.78343750000002,335.18859721797116L212.47296875,336.3705148642557L215.16250000000002,336.21965929771716L217.85203125,341.03539080887145L220.5415625,340.7344372153539L223.23109374999999,340.3319915308912L225.920625,339.87676480859056L228.61015625,339.75446473523397L231.2996875,339.572939880285L233.98921875,341.3456406477379L236.67875,336.55435944561486L239.36828125,336.3376950115499L242.0578125,336.66338283293743L244.74734375,336.98090059999794L247.43687500000001,338.19410957948173L250.12640625,337.62960170680253L252.8159375,333.9987316307668L255.50546874999998,336.3046727564223L258.195,336.50676917937886L260.88453125,340.3429699525312L263.57406249999997,339.6518178175388L266.26359375,338.50598285263953L268.953125,341.8185388555009L271.64265625,340.8282695061482L274.33218750000003,332.15050245091714L277.02171875,332.5105573795524L279.71125,333.2807739832572L282.40078125,335.4645796942847L285.09031250000004,336.764477428421L287.77984375,336.5202551989218L290.469375,337.4182412033686L293.15890625000003,338.1584529521581L295.84843750000005,338.82354746257926L298.53796875,338.37033317218044L301.2275,337.5140398315288L303.91703125,336.309207928526L306.6065625,335.26278998689156L309.29609374999995,337.2747735594645L311.98562499999997,338.08505380316336L314.67515625,336.64318410984L317.3646875,338.3566930856209L320.05421874999996,337.52593443929806L322.74375,336.85514670931855L325.43328125,336.25424424375456L328.1228125,335.5405477730948L330.81234374999997,334.63546456111857L333.501875,333.71044556734535L336.19140625,329.46982457321167L338.8809375,330.17309871712337L341.57046875000003,313.8057573395748L344.26,315.10343855995745L346.94953125,317.6001752675609L349.6390625,317.9401922871769L352.32859375000004,320.97751224446154L355.018125,323.30391524967496L357.70765625,325.42634163823516L360.39718750000003,327.1480528893309L363.08671875000005,328.4907962758659L365.77625,329.6509748967911L368.46578125,330.4434931999533L371.1553125,331.2506301582392L373.84484375,335.07042973286883L376.53437499999995,334.55732690166036L379.22390624999997,332.34739796384986L381.9134375,333.348502244839L384.60296875,336.57005463286487L387.29249999999996,334.89257649662375L389.98203125,334.07053057040855L392.6715625,332.60476660858154L395.36109375,332.9771342368416L398.05062499999997,332.93301834482213L400.74015625,335.8625365219709L403.4296875,335.2444570597296L406.11921875,336.8603954937697L408.80875000000003,336.18465725156653L411.49828125,335.5958664982735L414.1878125,323.04140682481926L416.87734375,325.59752598796643L419.56687500000004,328.97805700512845L422.25640625,329.62511278252697L424.9459375,326.93039495605774L427.63546875000003,327.6299506294819L430.32500000000005,326.3726862881394L433.01453125,324.0147234736598L435.7040625,323.75606118400594L438.39359375,321.7294726394312L441.083125,319.7104165230099L443.77265624999995,316.91325898244486L446.46218749999997,310.07489857022426L449.15171875,312.09306943991345L451.84125,296.7841708219918L454.53078124999996,287.71796974375917L457.2203125,287.40547521360673L459.90984375,290.29639017521976L462.599375,271.5833999571401L465.28890624999997,276.8501141916406L467.9784375,284.28425842661755L470.66796875,266.3194406723673L473.3575,264.35663304258435L476.04703125000003,263.11985057895055L478.7365625,263.6450377656985L481.42609375,269.54163028593206L484.115625,269.29356746554254L486.80515625000004,270.39621488103296L489.4946875,269.63192039709224L492.18421875,273.08397928392174L494.87375000000003,239.16092786468454L497.56328125000005,210.20980950288867L500.2528125,223.33936733136358L502.94234375,234.67040450056578L505.631875,206.35026171661022L508.32140625,182.2795654979476L511.01093749999995,162.5289453683148L513.70046875,173.32714656946396L516.39,190.68810258532343L519.07953125,204.973373512897L521.7690625,217.1868185227464L524.45859375,229.37347385162792L527.1481249999999,244.95405090686435L529.83765625,242.646694518921L532.5271875,243.99222700646803L535.21671875,243.41914554032186L537.90625,255.0359722385818L540.59578125,223.75602127525667L543.2853125,200.02377423593487L545.97484375,176.53702431116494L548.6643750000001,155.73428523944668L551.3539062499999,141.83908071023006L554.0434375,127.34966289068471L556.7329687499999,116.55673657712315L559.4225,142.15059121674562L562.11203125,126.68978493161596L564.8015625,112.6699924847816L567.49109375,101.65682193233637L570.1806250000001,93.37545770007722L572.8701562499999,109.4374604745517L575.5596875,98.39990361037518L578.24921875,89.29804221430925L580.93875,81.55968375812681L583.62828125,110.29947425627626L586.3178125000001,121.03272861223229L589.00734375,145.01719451115636L591.6968750000001,128.6957315454065L594.3864062499999,114.88056446495266L597.0759375,136.54695828185646L599.76546875,121.23969715675747L602.455,137.55728854882724L605.14453125,148.0541131376009L607.8340625,164.40639544064766L610.52359375,182.180494571821L613.213125,160.28158303252715L615.9026562500001,173.11444544947676L618.5921874999999,196.858632440653L621.28171875,199.4593597242136L623.9712499999999,208.12904046292456L626.66078125,220.38866436174888L629.3503125,218.6345755778477L632.03984375,190.49529116987935L634.729375,193.65888147266915L637.4189062500001,211.03385475408905L640.1084374999999,206.513601748495L642.79796875,180.14098602235254L645.4875,176.79459010874564L648.17703125,179.27590275820535L650.8665625,205.54974377880137L653.5560937500001,179.75825596686343L656.245625,194.89449017315255L658.9351562500001,195.47060394576363L661.6246874999999,171.60193188417222L664.31421875,187.4075014414514L667.00375,164.35925386195217L669.69328125,174.8671310567073L672.3828125,154.03923405445104L675.07234375,135.69380292577543L677.761875,150.35898311251958L680.45140625,157.0068595775264L683.1409375000001,139.2109680188271L685.8304687499999,123.4307482554561L688.52,146.60459864683742L691.2095312499999,156.8556518185618L693.8990625,166.2558312155774L696.58859375,146.58392357425637L699.278125,129.40243845608663L701.96765625,136.9625602609158L704.6571875000001,121.44922214462997L707.3467187499999,146.81922071685645L710.03625,130.73790411323415L712.72578125,139.25474256851467L715.4153125,123.58116626624529L718.10484375,111.19984271791004L720.7943750000001,99.81697400065319L723.48390625,125.88055048890357L726.1734375000001,155.908344642863L728.8629687499999,137.93456521205854L731.5525,142.45189639704665L734.24203125,126.00889494530216L736.9315625,128.13444560340915L739.62109375,127.21226804512433L742.310625,114.46903189109008L745.00015625,119.99581991748511L747.6896875,108.75763445427644L750.3792187500001,132.7111927422507L753.0687499999999,132.0113093875537L755.75828125,117.49691676360035L758.4478124999999,106.29973481546651L761.13734375,96.07034866541218L763.826875,87.52245312829568L766.51640625,112.57580575689065L769.2059375,100.92539553788833L771.8954687500001,90.85529868279103L774.5849999999999,82.47944321142705L777.27453125,75.78402287229106L779.9640625,69.83740127738498L782.65359375,85.78674187923424L785.343125,78.51022053875538L788.0326562500001,72.30128382024675L790.7221875,66.45051021693632L793.4117187500001,61.96811940216928L796.1012499999999,73.42882439223453L798.79078125,67.83835351660247L801.4803125,62.431636328955875L804.16984375,81.99647379587226L806.859375,74.8572034100852L809.54890625,68.62268041810366L812.2384375,63.23385801847406L814.92796875,59.251483319609186L817.6175000000001,83.06308682874787L820.3070312499999,75.7967784186935L822.9965625,69.09193477600667L825.6860937499999,63.60281335843385L828.375625,59.4346910128719L831.06515625,94.74263519114135L833.7546875,85.77659137731384L836.44421875,77.40784432110738L839.1337500000001,71.68630927450374L841.8232812499999,66.61797616457821L844.5128125,61.744722610985264L847.20234375,58.013081724220235L849.891875,54.76051472925906L852.58140625,51.017517915378015L855.2709375000001,68.06755665873538L857.96046875,62.89753631910477L860.6500000000001,58.50776263393437L863.3395312499999,54.31594335603169L866.0290625,50.633766427822266L868.71859375,47.77696584353178L871.408125,46.07707978047857L874.09765625,44.03336725188338L876.7871875,42.126343780311835L879.47671875,40.66279399549163L882.16625,38.95595175163659L884.8557812500001,38.49742334435987L887.5453124999999,37.391648246026186L890.23484375,37.03187386068474L892.9243749999999,72.80656716512694L895.61390625,67.64530127981101L898.3034375,93.99140034748294L900.99296875,105.57790400385659L903.6825,94.44312433589526L906.3720312500001,112.91320381783521L909.0615624999999,100.80038884574583L911.75109375,115.0565359265988L914.440625,102.64787721729647L917.13015625,91.96702515130353L919.8196875,83.55880477704554L922.5092187500001,75.95649692669967L925.19875,93.9266028564447L927.8882812500001,84.75719399536081L930.5778124999999,76.97990923199414L933.26734375,69.99758441946067L935.956875,103.7132188451646L938.64640625,92.8527133133118" style="fill: none;" fill="none"></path></g></g></g></g><g opacity="0.2"><g><g><g><path stroke="rgb(255, 112, 67)" stroke-width="2px" d="M134.4765625,342.711791015625L137.16609375000002,345.42215686035155L139.855625,349.84874560546876L142.54515625000002,349.82427600097657L145.2346875,344.7851783447266L147.92421875000002,325.0479953613281L150.61375,307.3891911621094L153.30328125,345.7615012207031L155.99281249999999,346.65786328125L158.68234375,317.0669512939453L161.371875,341.8079302978516L164.06140625,298.4282728271484L166.7509375,324.1114434814453L169.44046875,315.3450484619141L172.13,338.3420704345703L174.81953125,321.3801766357422L177.5090625,341.22317272949215L180.19859375000001,334.6612567138672L182.888125,339.6337327880859L185.57765625,321.35074426269534L188.26718749999998,311.09530065917966L190.95671875,332.95296850585936L193.64624999999998,336.11979431152344L196.33578125,310.3902490234375L199.02531249999998,342.17737255859373L201.71484375,344.941078125L204.40437500000002,338.2474794921875L207.09390625,343.2546834716797L209.78343750000002,342.0314786376953L212.47296875,343.0079219970703L215.16250000000002,335.37133422851565L217.85203125,368.1475346679688L220.5415625,339.0384357910156L223.23109374999999,338.0621530761719L225.920625,337.30742211914065L228.61015625,339.0637774658203L231.2996875,338.5472593994141L233.98921875,351.36637170410154L236.67875,309.4602204589844L239.36828125,335.11209985351564L242.0578125,338.50617456054687L244.74734375,338.77787036132816L247.43687500000001,345.0614984130859L250.12640625,334.43367504882815L252.8159375,313.4399362792969L255.50546874999998,349.36296228027345L258.195,337.6513333740234L260.88453125,362.0709716796875L263.57406249999997,335.7368923339844L266.26359375,332.015177368164L268.953125,360.5841376953125L271.64265625,335.2181539306641L274.33218750000003,282.98699713134766L277.02171875,334.550498046875L279.71125,337.64466088867186L282.40078125,347.83785473632815L285.09031250000004,344.1297429199219L287.77984375,335.13646044921876L290.469375,342.50641845703126L293.15890625000003,342.35269885253905L295.84843750000005,342.5921968994141L298.53796875,335.80224597167967L301.2275,332.66191503906254L303.91703125,329.4820712890625L306.6065625,329.3332685546875L309.29609374999995,348.67571923828126L311.98562499999997,342.676541015625L314.67515625,328.4727416992187L317.3646875,348.06642321777343L320.05421874999996,332.81836560058593L322.74375,333.0540598144531L325.43328125,332.84916345214845L328.1228125,331.4963012695312L330.81234374999997,329.50669580078124L333.501875,328.4687026367188L336.19140625,305.4397611694336L338.8809375,334.1583016357422L341.57046875000003,221.0578303833008L344.26,322.4569425048828L346.94953125,331.7483123779297L349.6390625,319.8669510498047L352.32859375000004,338.188958984375L355.018125,336.48684411621093L357.70765625,337.45340783691404L360.39718750000003,336.9044051513672L363.08671875000005,336.0996678466797L365.77625,336.22531481933595L368.46578125,334.9344270019531L371.1553125,335.8244034423828L373.84484375,356.7159493408203L376.53437499999995,331.6497454833984L379.22390624999997,319.8244720458984L381.9134375,339.0214246826172L384.60296875,354.8255131835938L387.29249999999996,325.3868692626953L389.98203125,329.41227124023436L392.6715625,324.29877221679686L395.36109375,335.08721716308594L398.05062499999997,332.68302832031253L400.74015625,352.4631378173828L403.4296875,331.7420070800781L406.11921875,346.0173792724609L408.80875000000003,332.3554741210937L411.49828125,332.2593857421875L414.1878125,251.89947192382814L416.87734375,340.0822006835937L419.56687500000004,348.13439880371095L422.25640625,333.2917620849609L424.9459375,311.66032763671876L427.63546875000003,331.5940993652344L430.32500000000005,319.2481884765625L433.01453125,310.65293438720704L435.7040625,322.2903082275391L438.39359375,310.2454710083008L441.083125,308.26909863281253L443.77265624999995,301.06269970703124L446.46218749999997,271.3241898193359L449.15171875,323.52937097167967L451.84125,210.03374572753904L454.53078124999996,236.34283050537113L457.2203125,285.63467288208005L459.90984375,306.6782415771484L462.599375,165.54312231445311L465.28890624999997,306.694828125L467.9784375,326.41107568359377L470.66796875,164.5188068847656L473.3575,253.23405648803714L476.04703125000003,256.1114166259766L478.7365625,266.621098487854L481.42609375,302.95565454101563L484.115625,267.8878781509399L486.80515625000004,276.6445502319336L489.4946875,265.3009183235169L492.18421875,292.64564630126955L494.87375000000003,46.93030322265624L497.56328125000005,46.15347216796874L500.2528125,297.7401950073242L502.94234375,298.8796151123047L505.631875,45.869452636718734L508.32140625,45.87895361328125L511.01093749999995,50.6087646484375L513.70046875,234.5169533691406L516.39,289.06685333251954L519.07953125,285.9232420959473L521.7690625,286.39634024047854L524.45859375,298.4311873779297L527.1481249999999,333.2439875488281L529.83765625,229.571674987793L532.5271875,251.61691110229492L535.21671875,240.17168389892575L537.90625,320.8646568603516L540.59578125,46.50296582031251L543.2853125,65.54104101562498L545.97484375,43.445441406249984L548.6643750000001,37.85209716796876L551.3539062499999,63.09958837890627L554.0434375,45.242961914062505L556.7329687499999,55.39682080078126L559.4225,287.182434173584L562.11203125,39.07854931640623L564.8015625,33.22450195312499L567.49109375,39.248855468749994L570.1806250000001,46.44772705078124L572.8701562499999,200.45547619628908L575.5596875,35.85374804687502L578.24921875,37.72082763671877L580.93875,37.708985839843734L583.62828125,273.1582870788574L586.3178125000001,181.85450329589844L589.00734375,280.9291679382324L591.6968750000001,36.207441406249984L594.3864062499999,36.59461767578126L597.0759375,259.3231899108887L599.76546875,34.49855078124999L602.455,230.02363977050783L605.14453125,207.536119140625L607.8340625,257.06932849121097L610.52359375,282.9003896484375L613.213125,36.187750976562484L615.9026562500001,245.83399914550782L618.5921874999999,331.409025390625L621.28171875,214.19681433105467L623.9712499999999,257.2572313156128L626.66078125,289.85986645507813L629.3503125,208.69473913574217L632.03984375,31.03934619140623L634.729375,211.5858931884766L637.4189062500001,309.4920366821289L640.1084374999999,180.89883471679687L642.79796875,30.696163574218737L645.4875,157.83167993164065L648.17703125,193.33667443847656L650.8665625,354.4348428955078L653.5560937500001,33.60649169921876L656.245625,280.66648400878904L658.9351562500001,198.73524865722658L661.6246874999999,36.346123535156266L664.31421875,276.97239559936526L667.00375,33.752517578124994L669.69328125,234.41176849365237L672.3828125,36.014484374999995L675.07234375,31.73635986328126L677.761875,233.46167083740232L680.45140625,194.67815954589844L683.1409375000001,38.36758251953125L685.8304687499999,34.0095029296875L688.52,277.92308419799804L691.2095312499999,214.944953125L693.8990625,219.52351446533203L696.58859375,35.10978027343749L699.278125,32.04068945312502L701.96765625,179.80325048828126L704.6571875000001,33.54030615234375L707.3467187499999,290.58254595947267L710.03625,39.61044335937502L712.72578125,187.5168271484375L715.4153125,34.76423388671876L718.10484375,41.039009277343766L720.7943750000001,35.314051269531234L723.48390625,273.57415058898926L726.1734375000001,326.0658448486328L728.8629687499999,36.0831484375L731.5525,168.05010644531248L734.24203125,32.83188671874999L736.9315625,140.17923266601565L739.62109375,121.98659521484376L742.310625,42.25736035156251L745.00015625,151.31428540039065L747.6896875,45.074583496093766L750.3792187500001,268.4480230407715L753.0687499999999,128.04530371093747L755.75828125,35.248691894531234L758.4478124999999,42.849037109375L761.13734375,38.10382714843749L763.826875,39.08437841796875L766.51640625,254.54480398559573L769.2059375,34.906404296875L771.8954687500001,33.791416503906234L774.5849999999999,35.01626220703126L777.27453125,37.843307617187506L779.9640625,36.13987890625L782.65359375,176.16633862304687L785.343125,37.27659960937502L788.0326562500001,37.117309082031255L790.7221875,33.296126464843766L793.4117187500001,36.567904785156244L796.1012499999999,138.37281933593752L798.79078125,36.15901855468751L801.4803125,31.79357226562502L804.16984375,192.86388610839845L806.859375,34.40133789062501L809.54890625,33.29371679687499L812.2384375,32.697197753906266L814.92796875,36.68469335937499L817.6175000000001,217.99550671386717L820.3070312499999,34.62103076171877L822.9965625,31.09782080078125L825.6860937499999,32.497791992187516L828.375625,35.8153310546875L831.06515625,294.82098553466795L833.7546875,34.96900976562499L836.44421875,29.984944335937488L839.1337500000001,39.26427734375L841.8232812499999,37.89742187500001L844.5128125,34.12961914062501L847.20234375,36.867116699218755L849.891875,36.329301757812516L852.58140625,29.807202636718763L855.2709375000001,164.68444287109375L857.96046875,33.60075439453126L860.6500000000001,33.632378417968766L863.3395312499999,30.562300781250016L866.0290625,29.76809716796877L868.71859375,31.588429199218762L871.408125,36.44439208984375L874.09765625,32.45232958984377L876.7871875,31.319877441406234L879.47671875,32.36934521484377L882.16625,29.283845703125007L884.8557812500001,35.89909570312499L887.5453124999999,31.12558935546877L890.23484375,34.99315234375002L892.9243749999999,275.5298292236328L895.61390625,38.3981279296875L898.3034375,243.28596173095704L900.99296875,171.23475805664063L903.6825,31.346039550781263L906.3720312500001,217.57698754882813L909.0615624999999,32.16110400390625L911.75109375,195.8413693847656L914.440625,32.332144531249995L917.13015625,31.442196777343735L919.8196875,35.912222656249995L922.5092187500001,32.87675244140624L925.19875,195.757203125L927.8882812500001,32.79721044921873L930.5778124999999,32.908628906250016L933.26734375,30.431077148437502L935.956875,294.76848059082033L938.64640625,31.30984863281249" style="fill: none;" fill="none"></path></g></g></g></g></g></g><g transform="translate(53, 376)" clip-path="url(#clip_1)"><clipPath id="clip_1"><rect width="1075" height="24"></rect></clipPath><g><g><line x1="0" y1="0" x2="0" y2="5" style="visibility: inherit;" fill="rgb(0, 0, 0)" stroke="rgb(204, 204, 204)" stroke-width="1px"></line><line x1="134.4765625" y1="0" x2="134.4765625" y2="5" style="visibility: inherit;" fill="rgb(0, 0, 0)" stroke="rgb(204, 204, 204)" stroke-width="1px"></line><line x1="268.953125" y1="0" x2="268.953125" y2="5" style="visibility: inherit;" fill="rgb(0, 0, 0)" stroke="rgb(204, 204, 204)" stroke-width="1px"></line><line x1="403.4296875" y1="0" x2="403.4296875" y2="5" style="visibility: inherit;" fill="rgb(0, 0, 0)" stroke="rgb(204, 204, 204)" stroke-width="1px"></line><line x1="537.90625" y1="0" x2="537.90625" y2="5" style="visibility: inherit;" fill="rgb(0, 0, 0)" stroke="rgb(204, 204, 204)" stroke-width="1px"></line><line x1="672.3828125" y1="0" x2="672.3828125" y2="5" style="visibility: inherit;" fill="rgb(0, 0, 0)" stroke="rgb(204, 204, 204)" stroke-width="1px"></line><line x1="806.859375" y1="0" x2="806.859375" y2="5" style="visibility: inherit;" fill="rgb(0, 0, 0)" stroke="rgb(204, 204, 204)" stroke-width="1px"></line><line x1="941.3359375" y1="0" x2="941.3359375" y2="5" style="visibility: inherit;" fill="rgb(0, 0, 0)" stroke="rgb(204, 204, 204)" stroke-width="1px"></line><line x1="1075.8125" y1="0" x2="1075.8125" y2="5" style="visibility: inherit;" fill="rgb(0, 0, 0)" stroke="rgb(204, 204, 204)" stroke-width="1px"></line></g><g transform="translate(0, 8)"><text x="0" y="0" dx="0em" dy="0.95em" style="text-anchor: middle; visibility: hidden; font-family: Roboto, sans-serif; font-size: 12px; font-weight: 200;" fill="rgb(33, 33, 33)" stroke="none" stroke-width="1px">-50</text><text x="134.4765625" y="0" dx="0em" dy="0.95em" style="text-anchor: middle; visibility: inherit; font-family: Roboto, sans-serif; font-size: 12px; font-weight: 200;" fill="rgb(33, 33, 33)" stroke="none" stroke-width="1px">0</text><text x="268.953125" y="0" dx="0em" dy="0.95em" style="text-anchor: middle; visibility: inherit; font-family: Roboto, sans-serif; font-size: 12px; font-weight: 200;" fill="rgb(33, 33, 33)" stroke="none" stroke-width="1px">50</text><text x="403.4296875" y="0" dx="0em" dy="0.95em" style="text-anchor: middle; visibility: inherit; font-family: Roboto, sans-serif; font-size: 12px; font-weight: 200;" fill="rgb(33, 33, 33)" stroke="none" stroke-width="1px">100</text><text x="537.90625" y="0" dx="0em" dy="0.95em" style="text-anchor: middle; visibility: inherit; font-family: Roboto, sans-serif; font-size: 12px; font-weight: 200;" fill="rgb(33, 33, 33)" stroke="none" stroke-width="1px">150</text><text x="672.3828125" y="0" dx="0em" dy="0.95em" style="text-anchor: middle; visibility: inherit; font-family: Roboto, sans-serif; font-size: 12px; font-weight: 200;" fill="rgb(33, 33, 33)" stroke="none" stroke-width="1px">200</text><text x="806.859375" y="0" dx="0em" dy="0.95em" style="text-anchor: middle; visibility: inherit; font-family: Roboto, sans-serif; font-size: 12px; font-weight: 200;" fill="rgb(33, 33, 33)" stroke="none" stroke-width="1px">250</text><text x="941.3359375" y="0" dx="0em" dy="0.95em" style="text-anchor: middle; visibility: inherit; font-family: Roboto, sans-serif; font-size: 12px; font-weight: 200;" fill="rgb(33, 33, 33)" stroke="none" stroke-width="1px">300</text><text x="1075.8125" y="0" dx="0em" dy="0.95em" style="text-anchor: middle; visibility: hidden; font-family: Roboto, sans-serif; font-size: 12px; font-weight: 200;" fill="rgb(33, 33, 33)" stroke="none" stroke-width="1px">350</text></g><line x1="0" y1="0" x2="1075.8125" y2="0" fill="rgb(0, 0, 0)" stroke="rgb(204, 204, 204)" stroke-width="1px"></line></g></g></g></g></svg>